<svg width="33" height="44" viewBox="0 0 33 44" fill="none" xmlns="http://www.w3.org/2000/svg">
<path d="M32.9421 41.7987L32.9421 2.19755C32.9408 1.79661 32.8302 1.4036 32.6222 1.06083C32.4142 0.718061 32.1167 0.438512 31.7616 0.252269C31.4066 0.0660247 31.0074 -0.0198604 30.6072 0.0038631C30.207 0.0275866 29.8208 0.160017 29.4902 0.386901L0.889375 20.1875C-0.296458 21.0081 -0.296458 22.9837 0.889375 23.8066L29.4902 43.6071C29.8201 43.8363 30.2065 43.9707 30.6074 43.9957C31.0083 44.0207 31.4084 43.9354 31.7642 43.749C32.12 43.5626 32.4179 43.2822 32.6256 42.9384C32.8333 42.5945 32.9427 42.2004 32.9421 41.7987Z" fill="#1E1E1E"/>
</svg>
