<svg width="108" height="108" viewBox="0 0 108 108" fill="none" xmlns="http://www.w3.org/2000/svg">
<path d="M54 0C24.1527 0 0 24.1527 0 54C0 83.8473 24.1527 108 54 108C83.8473 108 108 83.8473 108 54C108 24.1527 83.8473 0 54 0ZM54 93.2727C43.5842 93.2727 33.5951 89.1351 26.23 81.77C18.8649 74.405 14.7273 64.4158 14.7273 54C14.7273 43.5842 18.8649 33.5951 26.23 26.23C33.5951 18.8649 43.5842 14.7273 54 14.7273C64.4158 14.7273 74.405 18.8649 81.77 26.23C89.1351 33.5951 93.2727 43.5842 93.2727 54C93.2727 64.4158 89.1351 74.405 81.77 81.77C74.405 89.1351 64.4158 93.2727 54 93.2727ZM58.9091 61.3636C58.9091 64.4564 60.8727 67.2545 63.8182 68.2855V83.4545H44.1818V53.5582C48.0109 52.2327 50.0236 48.1091 48.7473 44.1818C48.3705 43.1422 47.7645 42.2007 46.9741 41.4274C46.1838 40.654 45.2294 40.0686 44.1818 39.7145V24.5455H63.8182V54.4418C60.8727 55.4727 58.9091 58.2709 58.9091 61.3636Z" fill="#E5E2E2"/>
</svg>
