<svg width="71" height="71" viewBox="0 0 71 71" fill="none" xmlns="http://www.w3.org/2000/svg">
<path d="M69.4072 62.248C70.3583 63.1991 70.8926 64.489 70.8926 65.8339C70.8926 67.1789 70.3583 68.4688 69.4072 69.4199C68.4562 70.3709 67.1663 70.9052 65.8213 70.9052C64.4763 70.9052 63.1864 70.3709 62.2353 69.4199L35.4505 42.6266L8.65722 69.4114C7.70617 70.3625 6.41627 70.8968 5.07128 70.8968C3.72629 70.8968 2.43639 70.3625 1.48534 69.4114C0.534295 68.4604 1.41717e-08 67.1705 0 65.8255C-1.41717e-08 64.4805 0.534295 63.1906 1.48534 62.2396L28.2786 35.4547L1.49378 8.66144C0.542731 7.71039 0.00843768 6.42049 0.00843769 5.0755C0.00843771 3.73051 0.542731 2.44061 1.49378 1.48956C2.44483 0.538513 3.73473 0.00421806 5.07972 0.00421804C6.42471 0.00421803 7.71461 0.538513 8.66566 1.48956L35.4505 28.2828L62.2438 1.48534C63.1948 0.534293 64.4847 -2.24075e-08 65.8297 0C67.1747 2.24075e-08 68.4646 0.534293 69.4157 1.48534C70.3667 2.43639 70.901 3.72629 70.901 5.07128C70.901 6.41627 70.3667 7.70617 69.4157 8.65722L42.6224 35.4547L69.4072 62.248Z" fill="#CE1C1C"/>
</svg>
