<svg width="45" height="40" viewBox="0 0 45 40" fill="none" xmlns="http://www.w3.org/2000/svg">
<path d="M22.6653 2.26004e-05C12.6317 2.26004e-05 4.38548 7.39645 3.58178 16.8262H1.57046C1.25926 16.8261 0.955038 16.9152 0.696444 17.0822C0.437849 17.2493 0.23655 17.4867 0.118117 17.7643C-0.000314767 18.042 -0.0305349 18.3473 0.0312959 18.6416C0.0931267 18.9358 0.244218 19.2057 0.465376 19.4169L3.98154 22.7809C4.27551 23.0621 4.67269 23.2198 5.08662 23.2198C5.50055 23.2198 5.89772 23.0621 6.1917 22.7809L9.70786 19.4169C9.92902 19.2057 10.0801 18.9358 10.1419 18.6416C10.2038 18.3473 10.1735 18.042 10.0551 17.7643C9.93668 17.4867 9.73539 17.2493 9.47679 17.0822C9.2182 16.9152 8.91398 16.8261 8.60278 16.8262H6.73377C7.52909 9.09058 14.3479 3.02886 22.6653 3.02886C25.4076 3.02337 28.1055 3.6968 30.5009 4.98472C32.8964 6.27264 34.9092 8.13199 36.347 10.3849C36.4522 10.5597 36.5926 10.7124 36.76 10.834C36.9273 10.9557 37.1182 11.0437 37.3214 11.093C37.5246 11.1423 37.736 11.1519 37.9431 11.1212C38.1501 11.0904 38.3488 11.02 38.5272 10.9141C38.7056 10.8081 38.8603 10.6688 38.982 10.5042C39.1037 10.3397 39.1901 10.1534 39.236 9.95612C39.2819 9.75889 39.2864 9.55479 39.2492 9.35586C39.2121 9.15692 39.134 8.96717 39.0197 8.79779C37.3012 6.10472 34.8956 3.88182 32.0328 2.34155C29.1699 0.801268 25.9433 -0.0049211 22.6653 2.26004e-05ZM41.0038 16.592C40.71 16.3121 40.3137 16.1551 39.9008 16.1551C39.4879 16.1551 39.0916 16.3121 38.7978 16.592L35.267 19.956C35.0452 20.167 34.8936 20.4369 34.8313 20.7313C34.7689 21.0257 34.7988 21.3314 34.9171 21.6093C35.0353 21.8873 35.2366 22.1251 35.4954 22.2924C35.7541 22.4596 36.0585 22.5489 36.37 22.5487H38.2516C37.452 30.2824 30.6102 36.3461 22.253 36.3461C19.5021 36.3535 16.7951 35.6812 14.3898 34.3932C11.9846 33.1051 9.96132 31.2443 8.51278 28.988C8.40449 28.8187 8.26269 28.6717 8.09549 28.5552C7.92828 28.4388 7.73894 28.3553 7.53828 28.3094C7.33761 28.2636 7.12955 28.2563 6.92598 28.288C6.7224 28.3198 6.5273 28.3899 6.35181 28.4943C5.99739 28.7053 5.74436 29.0435 5.64839 29.4345C5.55242 29.8255 5.62138 30.2373 5.84008 30.5792C7.56999 33.2752 9.98658 35.4989 12.8596 37.0386C15.7327 38.5783 18.9665 39.3826 22.253 39.375C32.3159 39.375 40.5978 31.9846 41.4035 22.5487H43.4295C43.741 22.5489 44.0454 22.4596 44.3042 22.2924C44.5629 22.1251 44.7642 21.8873 44.8824 21.6093C45.0007 21.3314 45.0306 21.0257 44.9683 20.7313C44.9059 20.4369 44.7543 20.167 44.5325 19.956L41.0038 16.592Z" fill="#1E1E1E"/>
</svg>
