<svg width="33" height="44" viewBox="0 0 33 44" fill="none" xmlns="http://www.w3.org/2000/svg">
<path d="M-7.62939e-06 2.20132L-7.62939e-06 41.8024C0.00124934 42.2034 0.11183 42.5964 0.319832 42.9392C0.527834 43.2819 0.825378 43.5615 1.18044 43.7477C1.5355 43.934 1.93464 44.0199 2.33488 43.9961C2.73512 43.9724 3.12132 43.84 3.45189 43.6131L32.0527 23.8125C33.2385 22.9919 33.2385 21.0163 32.0527 20.1934L3.45189 0.392873C3.12201 0.163681 2.73562 0.0292782 2.33471 0.00426575C1.9338 -0.0207467 1.53371 0.0645886 1.17789 0.251C0.822076 0.437411 0.524151 0.717769 0.316486 1.06161C0.108822 1.40546 -0.000640331 1.79964 -7.62939e-06 2.20132Z" fill="#1E1E1E"/>
</svg>
