<svg width="42" height="40" viewBox="0 0 42 40" fill="none" xmlns="http://www.w3.org/2000/svg">
<path d="M41.1907 36.4798C38.5587 31.8605 34.4489 28.2612 29.5228 26.2613C31.9725 24.4241 33.782 21.8626 34.6951 18.9398C35.6081 16.017 35.5783 12.8809 34.61 9.97598C33.6417 7.07101 31.7839 4.54435 29.2998 2.7539C26.8157 0.96346 23.8312 0 20.7691 0C17.707 0 14.7225 0.96346 12.2384 2.7539C9.75426 4.54435 7.89647 7.07101 6.92814 9.97598C5.95982 12.8809 5.93006 16.017 6.84308 18.9398C7.7561 21.8626 9.56562 24.4241 12.0153 26.2613C7.08923 28.2612 2.97942 31.8605 0.347443 36.4798C0.184357 36.742 0.07566 37.0344 0.0278156 37.3395C-0.0200288 37.6446 -0.00604451 37.9561 0.0689373 38.2557C0.143919 38.5553 0.278368 38.8367 0.46429 39.0833C0.650213 39.3299 0.883813 39.5365 1.1512 39.691C1.4186 39.8455 1.71432 39.9447 2.02079 39.9826C2.32727 40.0205 2.63824 39.9964 2.93522 39.9117C3.2322 39.8271 3.50912 39.6835 3.74952 39.4897C3.98993 39.2959 4.18891 39.0557 4.33463 38.7834C7.8131 32.771 13.9561 29.185 20.7691 29.185C27.582 29.185 33.725 32.7729 37.2035 38.7834C37.5193 39.2912 38.0202 39.6563 38.6004 39.8015C39.1805 39.9467 39.7943 39.8607 40.3121 39.5615C40.8299 39.2623 41.2111 38.7736 41.375 38.1985C41.539 37.6234 41.4729 37.007 41.1907 36.4798ZM10.7867 14.5954C10.7867 12.6211 11.3722 10.6911 12.469 9.04947C13.5659 7.40788 15.1249 6.12841 16.949 5.37287C18.773 4.61733 20.7801 4.41964 22.7165 4.80482C24.6529 5.18999 26.4316 6.14072 27.8277 7.53678C29.2237 8.93284 30.1745 10.7115 30.5596 12.6479C30.9448 14.5843 30.7471 16.5914 29.9916 18.4155C29.236 20.2395 27.9566 21.7985 26.315 22.8954C24.6734 23.9923 22.7434 24.5778 20.7691 24.5778C18.1225 24.5747 15.5852 23.522 13.7138 21.6506C11.8424 19.7792 10.7897 17.2419 10.7867 14.5954Z" fill="#E5E2E2"/>
</svg>
